<svg xmlns="http://www.w3.org/2000/svg" version="1.1" xmlns:xlink="http://www.w3.org/1999/xlink" xmlns:svgjs="http://svgjs.com/svgjs" width="33" height="33"><svg width="33" height="33" viewBox="0 0 33 33" fill="none" xmlns="http://www.w3.org/2000/svg">
<rect x="0.785156" y="0.931641" width="32" height="32" rx="16" fill="black"></rect>
<path d="M28.6449 18.8959C28.6449 20.8881 27.3357 22.1594 25.2676 22.1594C23.1615 22.1594 22.061 21.1158 21.9282 18.6872H23.2564C23.3512 20.0912 23.9774 20.6984 25.3624 20.6984C26.5578 20.6984 27.2788 20.1102 27.2788 19.1426C27.2788 18.4026 26.9183 18.099 25.666 17.7196L24.0722 17.2452C22.801 16.8657 22.1939 16.0689 22.1939 14.7976C22.1939 12.9003 23.4271 11.667 25.3055 11.667C27.1649 11.667 28.2654 12.7864 28.3792 14.7787H27.0511C26.9942 13.6592 26.406 13.128 25.2106 13.128C24.1671 13.128 23.522 13.6592 23.522 14.532C23.522 15.234 23.7876 15.4807 24.983 15.8412L26.368 16.2586C28.0187 16.7519 28.6449 17.5108 28.6449 18.8959Z" fill="white"></path>
<path d="M20.637 16.676C20.637 19.9774 19.2329 22.1594 17.0889 22.1594C16.0833 22.1594 15.4193 21.7419 14.869 20.7743V25.8023H13.5029V11.9516H14.7931V13.4126C15.5141 12.1224 16.1782 11.667 17.2787 11.667C19.2899 11.667 20.637 13.6782 20.637 16.676ZM19.214 16.7329C19.214 14.3992 18.455 13.1469 17.051 13.1469C15.571 13.1469 14.8121 14.532 14.8121 17.2262C14.8121 19.3892 15.6659 20.6984 17.032 20.6984C18.4171 20.6984 19.214 19.2374 19.214 16.7329Z" fill="white"></path>
<path d="M12.1641 13.3362H10.798V21.8743H9.43187V13.3362H8.29346V11.9511H9.43187V10.2435C9.43187 8.82047 10.1529 8.06152 11.5 8.06152C11.6518 8.06152 11.7466 8.06152 12.1641 8.09947V9.59838C11.9364 9.57941 11.7277 9.56043 11.5949 9.56043C11.0446 9.56043 10.798 9.90196 10.798 10.7178V11.9511H12.1641V13.3362Z" fill="white"></path>
<path d="M6.55702 21.8749H4.92529V19.8447H6.55702V21.8749Z" fill="white"></path>
</svg><style>@media (prefers-color-scheme: light) { :root { filter: none; } }
</style></svg>