<svg xmlns="http://www.w3.org/2000/svg" version="1.1" xmlns:xlink="http://www.w3.org/1999/xlink" xmlns:svgjs="http://svgjs.com/svgjs" width="33" height="32"><svg width="33" height="32" viewBox="0 0 33 32" fill="none" xmlns="http://www.w3.org/2000/svg">
<rect x="0.144108" width="32" height="32" rx="16" fill="white"></rect>
<path d="M28.0377 18.848C28.0377 20.992 26.6297 22.304 24.3257 22.304C22.1337 22.304 20.5497 21.12 20.5497 18.288H21.7497C21.7497 20.096 22.7417 20.976 24.3897 20.976C25.9097 20.976 26.8057 20.256 26.8057 18.992C26.8057 17.904 26.3577 17.44 24.8057 17.008L22.8697 16.464C21.5417 16.096 20.8697 15.168 20.8697 13.712C20.8697 11.696 22.0537 10.208 24.2297 10.208C26.4377 10.208 27.7817 11.344 27.7817 13.872H26.5817C26.5817 12.304 25.6217 11.536 24.2297 11.536C22.8857 11.536 22.1017 12.272 22.1017 13.52C22.1017 14.336 22.4537 14.8 23.2057 15.008L25.8937 15.76C27.3017 16.16 28.0377 17.216 28.0377 18.848Z" fill="black"></path>
<path d="M19.3197 13.76C19.3197 15.808 18.2157 17.152 16.5197 17.152H13.5757V22H12.2957V10.512H16.5197C18.1997 10.512 19.3197 11.808 19.3197 13.76ZM18.0077 13.808C18.0077 12.48 17.3997 11.84 16.1357 11.84H13.5757V15.824H16.0877C17.3677 15.824 18.0077 15.152 18.0077 13.808Z" fill="black"></path>
<path d="M10.7921 11.904H5.56011V15.408H10.1681V16.8H5.56011V22H4.28011V10.512H10.7921V11.904Z" fill="black"></path>
</svg><style>@media (prefers-color-scheme: light) { :root { filter: none; } }
</style></svg>